Coordinates
version=1
nRows=22
nColumns=24
inDegrees=yes

Units are S.I. units (second, meters, Newtons, ...)
Angles are in degrees.

endheader
time	pelvis_tilt	pelvis_list	pelvis_rotation	pelvis_tx	pelvis_ty	pelvis_tz	hip_flexion_r	hip_adduction_r	hip_rotation_r	knee_angle_r	ankle_angle_r	subtalar_angle_r	mtp_angle_r	hip_flexion_l	hip_adduction_l	hip_rotation_l	knee_angle_l	ankle_angle_l	subtalar_angle_l	mtp_angle_l	lumbar_extension	lumbar_bending	lumbar_rotation
      6.48500000	     -8.07664549	     -6.72113968	      5.50441567	     -0.86559984	      0.00104245	     -0.27610601	      9.61608176	     10.90324209	      3.72167051	     -6.86663847	     -0.80442075	     -2.52915531	      9.95998210	     25.98446965	     -8.88878121	      0.97716635	    -61.38662831	    -15.43777834	     -2.66816522	     27.07604055	      9.65596334	      6.79095056	      0.76727311
      6.49000000	     -8.08683568	     -6.53421991	      5.26476102	     -0.86111842	      0.00133044	     -0.27542495	      9.08521503	     10.78958571	      3.91795456	     -6.48738481	     -0.64935278	     -2.32880789	      9.97929994	     26.51156297	     -8.69876357	      0.63001268	    -60.93014521	    -14.66832646	     -2.91210942	     26.89846292	      9.51793477	      6.63876601	      1.21285347
      6.49500000	     -8.08871832	     -6.35318477	      5.03125544	     -0.85665184	      0.00157339	     -0.27476804	      8.55032052	     10.67632902	      4.08071993	     -6.10675673	     -0.49242284	     -2.11421765	     10.05118480	     27.01397978	     -8.50801752	      0.29990341	    -60.41160487	    -13.91841551	     -3.15780279	     26.65948118	      9.37313466	      6.49325350	      1.64905518
      6.50000000	     -8.08734546	     -6.17952288	      4.81291585	     -0.85220122	      0.00176957	     -0.27415801	      8.01763170	     10.56298008	      4.21396029	     -5.72565200	     -0.34402957	     -1.89884474	     10.16698576	     27.49884253	     -8.31052012	     -0.00035346	    -59.82975407	    -13.19574759	     -3.39621062	     26.38182660	      9.22910063	      6.35674144	      2.06090790
      6.50500000	     -8.01034434	     -6.05539391	      4.60526804	     -0.84778942	      0.00195868	     -0.27359826	      7.41314346	     10.50110143	      4.28713608	     -5.33700183	     -0.23930826	     -1.64312704	     10.41447942	     27.90521878	     -8.16622054	     -0.28751526	    -59.22639132	    -12.40206222	     -3.61742024	     25.74416854	      9.00106852	      6.27959252	      2.45989362
      6.51000000	     -8.07494709	     -5.88384474	      4.44625289	     -0.84336954	      0.00196354	     -0.27307877	      6.97321294	     10.37292715	      4.38344806	     -4.97844780	     -0.08404264	     -1.54453817	     10.54027691	     28.44068072	     -7.91644563	     -0.47034725	    -58.51570588	    -11.78289272	     -3.79014905	     25.61652013	      8.94155593	      6.12214035	      2.77934627
      6.51500000	     -8.06614750	     -5.73299705	      4.21240382	     -0.83896402	      0.00200574	     -0.27249614	      6.46591140	     10.27995008	      4.52840476	     -4.64430148	      0.05680230	     -1.37629101	     10.71901408	     28.85824272	     -7.73879088	     -0.73357332	    -57.74188316	    -11.18137950	     -4.01033460	     25.34936103	      8.79026893	      6.00353068	      3.20256121
      6.52000000	     -7.98294803	     -5.60330700	      3.98909978	     -0.83459749	      0.00207099	     -0.27200092	      5.89353392	     10.20565392	      4.66292020	     -4.32511257	      0.14631841	     -1.22057086	     10.99657279	     29.18010960	     -7.57370189	     -0.97168147	    -56.92425463	    -10.51504309	     -4.19547591	     24.79506776	      8.55246636	      5.92806602	      3.57912575
      6.52500000	     -7.98251610	     -5.47030990	      3.79470953	     -0.83020240	      0.00199330	     -0.27154956	      5.41656074	     10.11864381	      4.80551436	     -4.01719993	      0.25771533	     -1.16374065	     11.21108525	     29.57998914	     -7.37549890	     -1.14328576	    -56.04744947	     -9.92957570	     -4.30768279	     24.38382543	      8.42259487	      5.83076347	      3.92957699
      6.53000000	     -7.95415972	     -5.35113817	      3.59372552	     -0.82580382	      0.00189659	     -0.27112656	      4.91753486	     10.04769448	      4.96675117	     -3.72363116	      0.36383147	     -1.15118554	     11.39485092	     29.93033314	     -7.19708641	     -1.30977010	    -55.11724380	     -9.39563919	     -4.41176814	     23.93098878	      8.26514072	      5.76262421	      4.30768464
      6.53500000	     -8.00096044	     -5.23230944	      3.43774226	     -0.82146184	      0.00168082	     -0.27074479	      4.54637139	      9.97160114	      5.08307772	     -3.51153940	      0.51543684	     -1.18116424	     11.47115347	     30.34744758	     -6.97616675	     -1.37299698	    -54.10556360	     -8.94726356	     -4.50071220	     23.74191940	      8.18933478	      5.66464682	      4.59361385
      6.54000000	     -7.93715736	     -5.12289252	      3.17356778	     -0.81704905	      0.00154912	     -0.27029283	      4.03348117	      9.91626022	      5.37459657	     -3.28293900	      0.65020276	     -1.21654432	     11.55179170	     30.59487645	     -6.85060751	     -1.59227077	    -53.05249530	     -8.48380669	     -4.61230322	     23.23764295	      7.99585668	      5.61735249	      5.01390785
      6.54500000	     -7.90389504	     -5.01015703	      2.94620957	     -0.81270676	      0.00137870	     -0.26993378	      3.58777463	      9.84914327	      5.65201930	     -3.10794079	      0.75243739	     -1.33722791	     11.55231976	     30.85798094	     -6.67528673	     -1.70433556	    -51.93867292	     -8.02049611	     -4.63811081	     22.64025474	      7.82419825	      5.56534934	      5.39996463
      6.55000000	     -7.88221702	     -4.92052720	      2.77046586	     -0.80832973	      0.00111983	     -0.26962735	      3.16186180	      9.80732260	      5.91163014	     -2.94592032	      0.86648349	     -1.58074548	     11.41253647	     31.13251411	     -6.50402482	     -1.76776097	    -50.80718662	     -7.48577561	     -4.54642236	     21.81810996	      7.68267272	      5.51671758	      5.70578389
      6.55500000	     -7.96049596	     -4.82251746	      2.55894755	     -0.80401571	      0.00075254	     -0.26931695	      2.89361434	      9.74723344	      6.11931045	     -2.87348266	      1.08148283	     -1.63379474	     11.42256042	     31.47809790	     -6.32637901	     -1.80085931	    -49.56675307	     -7.23619059	     -4.60795630	     21.62316081	      7.64008987	      5.46173149	      6.03167940
      6.56000000	     -7.95620677	     -4.71359299	      2.28328553	     -0.79962193	      0.00045454	     -0.26893139	      2.52135942	      9.68458124	      6.47205414	     -2.80084908	      1.28638582	     -1.77199124	     11.32150265	     31.68191729	     -6.20613406	     -1.97731108	    -48.27093598	     -6.95302224	     -4.71191601	     21.17226218	      7.51480045	      5.41183521	      6.43259654
      6.56500000	     -7.90292613	     -4.63260811	      2.06546054	     -0.79532401	      0.00017979	     -0.26867126	      2.11263264	      9.65048663	      6.87575586	     -2.75228014	      1.44229950	     -2.12138975	     10.87232358	     31.83751404	     -6.06909589	     -2.03352338	    -46.97773955	     -6.51168913	     -4.60095556	     20.20711193	      7.31721840	      5.40016194	      6.82745068
      6.57000000	     -7.98760932	     -4.54670813	      1.81503406	     -0.79095673	     -0.00022129	     -0.26838043	      1.87147028	      9.59636265	      7.19155010	     -2.73920527	      1.66573675	     -2.19150254	     10.72201241	     32.09714492	     -5.94387817	     -2.10349584	    -45.58274288	     -6.31757169	     -4.64373686	     19.73021002	      7.29362860	      5.36655388	      7.16547457
      6.57500000	     -8.08174832	     -4.45579842	      1.65977806	     -0.78662680	     -0.00068542	     -0.26817054	      1.66845167	      9.53725899	      7.38190253	     -2.75842043	      1.88813585	     -2.32912150	     10.65710694	     32.35792475	     -5.76560685	     -2.05306655	    -44.13109749	     -6.15748382	     -4.60156241	     19.41488568	      7.27882725	      5.30331996	      7.41449130
      6.58000000	     -8.06360587	     -4.37442618	      1.35400893	     -0.78229015	     -0.00100442	     -0.26786256	      1.31962083	      9.49230460	      7.85411611	     -2.76593297	      2.07788944	     -2.55445157	     10.27231783	     32.44226832	     -5.69524866	     -2.20296019	    -42.66364083	     -5.87604534	     -4.64478212	     18.45575046	      7.12383690	      5.29908163	      7.87052596
      6.58500000	     -8.14852669	     -4.27366256	      1.14307912	     -0.77791063	     -0.00146419	     -0.26762760	      1.10492685	      9.42027769	      8.18870470	     -2.81139123	      2.34799796	     -2.73034144	      9.93160742	     32.62455753	     -5.55317371	     -2.23836141	    -41.14638953	     -5.60522246	     -4.56311237	     17.57483327	      7.10248583	      5.24163753	      8.18841275
      6.59000000	     -8.22978433	     -4.19447968	      0.94750462	     -0.77355280	     -0.00194130	     -0.26744345	      0.89640647	      9.36559288	      8.46087621	     -2.86456589	      2.61213837	     -2.84215086	      9.66229966	     32.78587145	     -5.43176828	     -2.25356912	    -39.58855959	     -5.37010519	     -4.48937871	     16.78933886	      7.07557105	      5.20962575	      8.48454319
